<?xml version="1.0" encoding="UTF-8" standalone="no"?><svg xmlns="http://www.w3.org/2000/svg" xmlns:xlink="http://www.w3.org/1999/xlink" clip-rule="evenodd" stroke-miterlimit="10" viewBox="0 0 638 16"><desc>SVG generated by Keynote</desc><defs></defs><g transform="matrix(1.00, 0.00, -0.00, -1.00, 0.0, 16.0)"><text xml:space="preserve" font-family="BankGothic-Light,Bank Gothic" font-size="28.0" fill="#BA1317" transform="matrix(1.00, 0.00, -0.00, -1.00, 0.4, 1.6)">o</text><text xml:space="preserve" font-family="BankGothic-Light,Bank Gothic" font-size="28.0" fill="#BA1317" transform="matrix(1.00, 0.00, -0.00, -1.00, 19.7, 1.6)">l</text><text xml:space="preserve" font-family="BankGothic-Light,Bank Gothic" font-size="28.0" fill="#BA1317" transform="matrix(1.00, 0.00, -0.00, -1.00, 34.7, 1.6)">l</text><text xml:space="preserve" font-family="BankGothic-Light,Bank Gothic" font-size="28.0" fill="#BA1317" transform="matrix(1.00, 0.00, -0.00, -1.00, 49.7, 1.6)">e</text><text xml:space="preserve" font-family="BankGothic-Light,Bank Gothic" font-size="28.0" fill="#BA1317" transform="matrix(1.00, 0.00, -0.00, -1.00, 65.9, 1.6)">c</text><text xml:space="preserve" font-family="BankGothic-Light,Bank Gothic" font-size="28.0" fill="#BA1317" transform="matrix(1.00, 0.00, -0.00, -1.00, 83.2, 1.6)">t</text><text xml:space="preserve" font-family="BankGothic-Light,Bank Gothic" font-size="28.0" fill="#BA1317" transform="matrix(1.00, 0.00, -0.00, -1.00, 97.9, 1.6)"> </text><text xml:space="preserve" font-family="BankGothic-Light,Bank Gothic" font-size="28.0" fill="#BA1317" transform="matrix(1.00, 0.00, -0.00, -1.00, 108.4, 1.6)">y</text><text xml:space="preserve" font-family="BankGothic-Light,Bank Gothic" font-size="28.0" fill="#BA1317" transform="matrix(1.00, 0.00, -0.00, -1.00, 124.1, 1.6)">o</text><text xml:space="preserve" font-family="BankGothic-Light,Bank Gothic" font-size="28.0" fill="#BA1317" transform="matrix(1.00, 0.00, -0.00, -1.00, 143.5, 1.6)">u</text><text xml:space="preserve" font-family="BankGothic-Light,Bank Gothic" font-size="28.0" fill="#BA1317" transform="matrix(1.00, 0.00, -0.00, -1.00, 162.1, 1.6)">r</text><text xml:space="preserve" font-family="BankGothic-Light,Bank Gothic" font-size="28.0" fill="#BA1317" transform="matrix(1.00, 0.00, -0.00, -1.00, 179.3, 1.6)"> </text><text xml:space="preserve" font-family="BankGothic-Light,Bank Gothic" font-size="28.0" fill="#BA1317" transform="matrix(1.00, 0.00, -0.00, -1.00, 189.8, 1.6)">e</text><text xml:space="preserve" font-family="BankGothic-Light,Bank Gothic" font-size="28.0" fill="#BA1317" transform="matrix(1.00, 0.00, -0.00, -1.00, 206.0, 1.6)">v</text><text xml:space="preserve" font-family="BankGothic-Light,Bank Gothic" font-size="28.0" fill="#BA1317" transform="matrix(1.00, 0.00, -0.00, -1.00, 222.3, 1.6)">e</text><text xml:space="preserve" font-family="BankGothic-Light,Bank Gothic" font-size="28.0" fill="#BA1317" transform="matrix(1.00, 0.00, -0.00, -1.00, 238.6, 1.6)">r</text><text xml:space="preserve" font-family="BankGothic-Light,Bank Gothic" font-size="28.0" fill="#BA1317" transform="matrix(1.00, 0.00, -0.00, -1.00, 255.7, 1.6)">y</text><text xml:space="preserve" font-family="BankGothic-Light,Bank Gothic" font-size="28.0" fill="#BA1317" transform="matrix(1.00, 0.00, -0.00, -1.00, 271.5, 1.6)"> </text><text xml:space="preserve" font-family="BankGothic-Light,Bank Gothic" font-size="28.0" fill="#BA1317" transform="matrix(1.00, 0.00, -0.00, -1.00, 282.0, 1.6)">t</text><text xml:space="preserve" font-family="BankGothic-Light,Bank Gothic" font-size="28.0" fill="#BA1317" transform="matrix(1.00, 0.00, -0.00, -1.00, 296.7, 1.6)">r</text><text xml:space="preserve" font-family="BankGothic-Light,Bank Gothic" font-size="28.0" fill="#BA1317" transform="matrix(1.00, 0.00, -0.00, -1.00, 313.9, 1.6)">i</text><text xml:space="preserve" font-family="BankGothic-Light,Bank Gothic" font-size="28.0" fill="#BA1317" transform="matrix(1.00, 0.00, -0.00, -1.00, 321.5, 1.6)">p</text><text xml:space="preserve" font-family="BankGothic-Light,Bank Gothic" font-size="28.0" fill="#BA1317" transform="matrix(1.00, 0.00, -0.00, -1.00, 338.5, 1.6)"> </text><text xml:space="preserve" font-family="BankGothic-Light,Bank Gothic" font-size="28.0" fill="#BA1317" transform="matrix(1.00, 0.00, -0.00, -1.00, 348.9, 1.6)">w</text><text xml:space="preserve" font-family="BankGothic-Light,Bank Gothic" font-size="28.0" fill="#BA1317" transform="matrix(1.00, 0.00, -0.00, -1.00, 369.5, 1.6)">i</text><text xml:space="preserve" font-family="BankGothic-Light,Bank Gothic" font-size="28.0" fill="#BA1317" transform="matrix(1.00, 0.00, -0.00, -1.00, 377.2, 1.6)">t</text><text xml:space="preserve" font-family="BankGothic-Light,Bank Gothic" font-size="28.0" fill="#BA1317" transform="matrix(1.00, 0.00, -0.00, -1.00, 391.9, 1.6)">h</text><text xml:space="preserve" font-family="BankGothic-Light,Bank Gothic" font-size="28.0" fill="#BA1317" transform="matrix(1.00, 0.00, -0.00, -1.00, 411.3, 1.6)"> </text><text xml:space="preserve" font-family="BankGothic-Light,Bank Gothic" font-size="28.0" fill="#BA1317" transform="matrix(1.00, 0.00, -0.00, -1.00, 421.8, 1.6)">a</text><text xml:space="preserve" font-family="BankGothic-Light,Bank Gothic" font-size="28.0" fill="#BA1317" transform="matrix(1.00, 0.00, -0.00, -1.00, 439.3, 1.6)"> </text><text xml:space="preserve" font-family="BankGothic-Light,Bank Gothic" font-size="28.0" fill="#BA1317" transform="matrix(1.00, 0.00, -0.00, -1.00, 449.8, 1.6)">j</text><text xml:space="preserve" font-family="BankGothic-Light,Bank Gothic" font-size="28.0" fill="#BA1317" transform="matrix(1.00, 0.00, -0.00, -1.00, 465.4, 1.6)">o</text><text xml:space="preserve" font-family="BankGothic-Light,Bank Gothic" font-size="28.0" fill="#BA1317" transform="matrix(1.00, 0.00, -0.00, -1.00, 484.7, 1.6)">u</text><text xml:space="preserve" font-family="BankGothic-Light,Bank Gothic" font-size="28.0" fill="#BA1317" transform="matrix(1.00, 0.00, -0.00, -1.00, 503.4, 1.6)">r</text><text xml:space="preserve" font-family="BankGothic-Light,Bank Gothic" font-size="28.0" fill="#BA1317" transform="matrix(1.00, 0.00, -0.00, -1.00, 520.6, 1.6)">n</text><text xml:space="preserve" font-family="BankGothic-Light,Bank Gothic" font-size="28.0" fill="#BA1317" transform="matrix(1.00, 0.00, -0.00, -1.00, 539.8, 1.6)">e</text><text xml:space="preserve" font-family="BankGothic-Light,Bank Gothic" font-size="28.0" fill="#BA1317" transform="matrix(1.00, 0.00, -0.00, -1.00, 556.0, 1.6)">y</text><text xml:space="preserve" font-family="BankGothic-Light,Bank Gothic" font-size="28.0" fill="#BA1317" transform="matrix(1.00, 0.00, -0.00, -1.00, 571.8, 1.6)"> </text><text xml:space="preserve" font-family="BankGothic-Light,Bank Gothic" font-size="28.0" fill="#BA1317" transform="matrix(1.00, 0.00, -0.00, -1.00, 582.3, 1.6)">m</text><text xml:space="preserve" font-family="BankGothic-Light,Bank Gothic" font-size="28.0" fill="#BA1317" transform="matrix(1.00, 0.00, -0.00, -1.00, 603.1, 1.6)">a</text><text xml:space="preserve" font-family="BankGothic-Light,Bank Gothic" font-size="28.0" fill="#BA1317" transform="matrix(1.00, 0.00, -0.00, -1.00, 620.6, 1.6)">p</text></g></svg>