<?xml version="1.0" encoding="UTF-8" standalone="no"?><svg xmlns="http://www.w3.org/2000/svg" xmlns:xlink="http://www.w3.org/1999/xlink" clip-rule="evenodd" stroke-miterlimit="10" viewBox="0 0 750 22"><desc>SVG generated by Keynote</desc><defs></defs><g transform="matrix(1.00, 0.00, -0.00, -1.00, 0.0, 22.0)"><text xml:space="preserve" font-family="BankGothic-Light,Bank Gothic" font-size="28.0" fill="#BA1317" transform="matrix(1.00, 0.00, -0.00, -1.00, -2.5, 4.6)">M</text><text xml:space="preserve" font-family="BankGothic-Light,Bank Gothic" font-size="28.0" fill="#BA1317" transform="matrix(1.00, 0.00, -0.00, -1.00, 22.8, 4.6)">a</text><text xml:space="preserve" font-family="BankGothic-Light,Bank Gothic" font-size="28.0" fill="#BA1317" transform="matrix(1.00, 0.00, -0.00, -1.00, 40.4, 4.6)">k</text><text xml:space="preserve" font-family="BankGothic-Light,Bank Gothic" font-size="28.0" fill="#BA1317" transform="matrix(1.00, 0.00, -0.00, -1.00, 57.3, 4.6)">e</text><text xml:space="preserve" font-family="BankGothic-Light,Bank Gothic" font-size="28.0" fill="#BA1317" transform="matrix(1.00, 0.00, -0.00, -1.00, 73.6, 4.6)"> </text><text xml:space="preserve" font-family="BankGothic-Light,Bank Gothic" font-size="28.0" fill="#BA1317" transform="matrix(1.00, 0.00, -0.00, -1.00, 84.0, 4.6)">y</text><text xml:space="preserve" font-family="BankGothic-Light,Bank Gothic" font-size="28.0" fill="#BA1317" transform="matrix(1.00, 0.00, -0.00, -1.00, 99.8, 4.6)">o</text><text xml:space="preserve" font-family="BankGothic-Light,Bank Gothic" font-size="28.0" fill="#BA1317" transform="matrix(1.00, 0.00, -0.00, -1.00, 119.1, 4.6)">u</text><text xml:space="preserve" font-family="BankGothic-Light,Bank Gothic" font-size="28.0" fill="#BA1317" transform="matrix(1.00, 0.00, -0.00, -1.00, 137.8, 4.6)">r</text><text xml:space="preserve" font-family="BankGothic-Light,Bank Gothic" font-size="28.0" fill="#BA1317" transform="matrix(1.00, 0.00, -0.00, -1.00, 155.0, 4.6)"> </text><text xml:space="preserve" font-family="BankGothic-Light,Bank Gothic" font-size="28.0" fill="#BA1317" transform="matrix(1.00, 0.00, -0.00, -1.00, 165.5, 4.6)">w</text><text xml:space="preserve" font-family="BankGothic-Light,Bank Gothic" font-size="28.0" fill="#BA1317" transform="matrix(1.00, 0.00, -0.00, -1.00, 186.1, 4.6)">o</text><text xml:space="preserve" font-family="BankGothic-Light,Bank Gothic" font-size="28.0" fill="#BA1317" transform="matrix(1.00, 0.00, -0.00, -1.00, 205.4, 4.6)">r</text><text xml:space="preserve" font-family="BankGothic-Light,Bank Gothic" font-size="28.0" fill="#BA1317" transform="matrix(1.00, 0.00, -0.00, -1.00, 222.5, 4.6)">l</text><text xml:space="preserve" font-family="BankGothic-Light,Bank Gothic" font-size="28.0" fill="#BA1317" transform="matrix(1.00, 0.00, -0.00, -1.00, 237.5, 4.6)">d</text><text xml:space="preserve" font-family="BankGothic-Light,Bank Gothic" font-size="28.0" fill="#BA1317" transform="matrix(1.00, 0.00, -0.00, -1.00, 257.9, 4.6)"> </text><text xml:space="preserve" font-family="BankGothic-Light,Bank Gothic" font-size="28.0" fill="#BA1317" transform="matrix(1.00, 0.00, -0.00, -1.00, 268.4, 4.6)">m</text><text xml:space="preserve" font-family="BankGothic-Light,Bank Gothic" font-size="28.0" fill="#BA1317" transform="matrix(1.00, 0.00, -0.00, -1.00, 289.2, 4.6)">a</text><text xml:space="preserve" font-family="BankGothic-Light,Bank Gothic" font-size="28.0" fill="#BA1317" transform="matrix(1.00, 0.00, -0.00, -1.00, 306.7, 4.6)">p</text><text xml:space="preserve" font-family="BankGothic-Light,Bank Gothic" font-size="28.0" fill="#BA1317" transform="matrix(1.00, 0.00, -0.00, -1.00, 323.7, 4.6)"> </text><text xml:space="preserve" font-family="BankGothic-Light,Bank Gothic" font-size="28.0" fill="#BA1317" transform="matrix(1.00, 0.00, -0.00, -1.00, 334.2, 4.6)">u</text><text xml:space="preserve" font-family="BankGothic-Light,Bank Gothic" font-size="28.0" fill="#BA1317" transform="matrix(1.00, 0.00, -0.00, -1.00, 352.9, 4.6)">n</text><text xml:space="preserve" font-family="BankGothic-Light,Bank Gothic" font-size="28.0" fill="#BA1317" transform="matrix(1.00, 0.00, -0.00, -1.00, 372.1, 4.6)">i</text><text xml:space="preserve" font-family="BankGothic-Light,Bank Gothic" font-size="28.0" fill="#BA1317" transform="matrix(1.00, 0.00, -0.00, -1.00, 379.7, 4.6)">q</text><text xml:space="preserve" font-family="BankGothic-Light,Bank Gothic" font-size="28.0" fill="#BA1317" transform="matrix(1.00, 0.00, -0.00, -1.00, 399.0, 4.6)">u</text><text xml:space="preserve" font-family="BankGothic-Light,Bank Gothic" font-size="28.0" fill="#BA1317" transform="matrix(1.00, 0.00, -0.00, -1.00, 417.7, 4.6)">e</text><text xml:space="preserve" font-family="BankGothic-Light,Bank Gothic" font-size="28.0" fill="#BA1317" transform="matrix(1.00, 0.00, -0.00, -1.00, 433.9, 4.6)"> </text><text xml:space="preserve" font-family="BankGothic-Light,Bank Gothic" font-size="28.0" fill="#BA1317" transform="matrix(1.00, 0.00, -0.00, -1.00, 444.4, 4.6)">w</text><text xml:space="preserve" font-family="BankGothic-Light,Bank Gothic" font-size="28.0" fill="#BA1317" transform="matrix(1.00, 0.00, -0.00, -1.00, 465.0, 4.6)">i</text><text xml:space="preserve" font-family="BankGothic-Light,Bank Gothic" font-size="28.0" fill="#BA1317" transform="matrix(1.00, 0.00, -0.00, -1.00, 472.6, 4.6)">t</text><text xml:space="preserve" font-family="BankGothic-Light,Bank Gothic" font-size="28.0" fill="#BA1317" transform="matrix(1.00, 0.00, -0.00, -1.00, 487.3, 4.6)">h</text><text xml:space="preserve" font-family="BankGothic-Light,Bank Gothic" font-size="28.0" fill="#BA1317" transform="matrix(1.00, 0.00, -0.00, -1.00, 506.8, 4.6)"> </text><text xml:space="preserve" font-family="BankGothic-Light,Bank Gothic" font-size="28.0" fill="#BA1317" transform="matrix(1.00, 0.00, -0.00, -1.00, 517.2, 4.6)">h</text><text xml:space="preserve" font-family="BankGothic-Light,Bank Gothic" font-size="28.0" fill="#BA1317" transform="matrix(1.00, 0.00, -0.00, -1.00, 536.7, 4.6)">a</text><text xml:space="preserve" font-family="BankGothic-Light,Bank Gothic" font-size="28.0" fill="#BA1317" transform="matrix(1.00, 0.00, -0.00, -1.00, 554.2, 4.6)">p</text><text xml:space="preserve" font-family="BankGothic-Light,Bank Gothic" font-size="28.0" fill="#BA1317" transform="matrix(1.00, 0.00, -0.00, -1.00, 571.2, 4.6)">p</text><text xml:space="preserve" font-family="BankGothic-Light,Bank Gothic" font-size="28.0" fill="#BA1317" transform="matrix(1.00, 0.00, -0.00, -1.00, 588.2, 4.6)">y</text><text xml:space="preserve" font-family="BankGothic-Light,Bank Gothic" font-size="28.0" fill="#BA1317" transform="matrix(1.00, 0.00, -0.00, -1.00, 604.0, 4.6)"> </text><text xml:space="preserve" font-family="BankGothic-Light,Bank Gothic" font-size="28.0" fill="#BA1317" transform="matrix(1.00, 0.00, -0.00, -1.00, 614.4, 4.6)">m</text><text xml:space="preserve" font-family="BankGothic-Light,Bank Gothic" font-size="28.0" fill="#BA1317" transform="matrix(1.00, 0.00, -0.00, -1.00, 635.2, 4.6)">e</text><text xml:space="preserve" font-family="BankGothic-Light,Bank Gothic" font-size="28.0" fill="#BA1317" transform="matrix(1.00, 0.00, -0.00, -1.00, 651.5, 4.6)">m</text><text xml:space="preserve" font-family="BankGothic-Light,Bank Gothic" font-size="28.0" fill="#BA1317" transform="matrix(1.00, 0.00, -0.00, -1.00, 672.3, 4.6)">o</text><text xml:space="preserve" font-family="BankGothic-Light,Bank Gothic" font-size="28.0" fill="#BA1317" transform="matrix(1.00, 0.00, -0.00, -1.00, 691.6, 4.6)">r</text><text xml:space="preserve" font-family="BankGothic-Light,Bank Gothic" font-size="28.0" fill="#BA1317" transform="matrix(1.00, 0.00, -0.00, -1.00, 708.7, 4.6)">i</text><text xml:space="preserve" font-family="BankGothic-Light,Bank Gothic" font-size="28.0" fill="#BA1317" transform="matrix(1.00, 0.00, -0.00, -1.00, 716.4, 4.6)">e</text><text xml:space="preserve" font-family="BankGothic-Light,Bank Gothic" font-size="28.0" fill="#BA1317" transform="matrix(1.00, 0.00, -0.00, -1.00, 732.6, 4.6)">s</text></g></svg>